<svg xmlns="http://www.w3.org/2000/svg" xmlns:xlink="http://www.w3.org/1999/xlink" version="1.1" x="0px" y="0px" viewBox="0 0 64 64" enable-background="new 0 0 64 64" xml:space="preserve">
<g id="edit-outline-top_x5F_s1g1_x5F_s2g2_x5F_s3g1_x5F_s4g2">
	<path fill="none" stroke="#536DFE" stroke-width="1" stroke-linecap="round" stroke-linejoin="round" stroke-miterlimit="10" d="   M37.444,19.092v-2.207c0-2.074-1.682-3.756-3.756-3.756h-3.377c-2.074,0-3.756,1.682-3.756,3.756v2.207"/>
</g>
<g id="edit-outline-bot_x5F_s1g1_x5F_s2g1_x5F_s3g1_x5F_s4g1_x5F_background">
	
		<path fill="#FFFFFF" stroke="#000000" stroke-width="1" stroke-linecap="round" stroke-linejoin="round" stroke-miterlimit="10" d="   M48.482,21.551L48.482,21.551c0,1.358-1.247,2.459-2.787,2.46l-27.39,0.006c-1.54,0-2.788-1.101-2.788-2.46v-0.006   c0-1.358,1.248-2.46,2.787-2.46h27.39C47.235,19.092,48.482,20.193,48.482,21.551z"/>
	
		<path fill="#FFFFFF" stroke="#000000" stroke-width="1" stroke-linecap="round" stroke-linejoin="round" stroke-miterlimit="10" d="   M18.427,42.902V24.017h27.147v18.884c0,4.401-3.568,7.969-7.969,7.969H26.396C21.995,50.871,18.427,47.303,18.427,42.902z"/>
</g>
<g id="edit-outline-top_x5F_s1g1_x5F_s2g2_x5F_s3g1_x5F_s4g1_x5F_background">
	<g id="home-outline-first_x5F_s1g1_x5F_s2g1_x5F_s3g1_x5F_s4g1_1_">
	</g>
	
		<line fill="none" stroke="#536DFE" stroke-width="1" stroke-linecap="round" stroke-linejoin="round" stroke-miterlimit="10" x1="26.556" y1="29.461" x2="28.371" y2="43.979"/>
	
		<line fill="none" stroke="#536DFE" stroke-width="1" stroke-linecap="round" stroke-linejoin="round" stroke-miterlimit="10" x1="37.88" y1="29.461" x2="36.066" y2="43.979"/>
</g>
</svg>