<svg xmlns="http://www.w3.org/2000/svg" xmlns:xlink="http://www.w3.org/1999/xlink" version="1.1" x="0px" y="0px" viewBox="0 0 64 64" enable-background="new 0 0 64 64" xml:space="preserve">
<g id="edit-outline-bot_x5F_s1g1_x5F_s2g2_x5F_s3g1_x5F_s4g1_x5F_background">
	
		<path fill="#FFFFFF" stroke="#0CBBF7FF" stroke-width="1" stroke-linecap="round" stroke-linejoin="round" stroke-miterlimit="10" d="   M23.363,18.127h14.99c4.139,0,7.495,3.356,7.495,7.495v14.99c0,4.139-3.356,7.495-7.495,7.495h-14.99   c-4.139,0-7.495-3.356-7.495-7.495v-14.99C15.868,21.483,19.223,18.127,23.363,18.127z"/>
</g>
<g id="edit-outline-top_x5F_s1g1_x5F_s2g1_x5F_s3g1_x5F_s4g1_x5F_background">
	<g id="home-outline-first_x5F_s1g1_x5F_s2g1_x5F_s3g1_x5F_s4g1_1_">
	</g>
	
		<path fill="#FFFFFF" stroke="#000000" stroke-width="1" stroke-linecap="round" stroke-linejoin="round" stroke-miterlimit="10" d="   M46.486,17.538L46.486,17.538c-2.195-2.195-5.755-2.195-7.95,0L23.271,32.803c-0.407,0.407-0.635,0.958-0.635,1.533v4.884   c0,1.197,0.971,2.168,2.168,2.168l4.884,0c0.575,0,1.127-0.228,1.533-0.635l15.265-15.265   C48.681,23.293,48.681,19.734,46.486,17.538z"/>
</g>
<g id="edit-outline-top_x5F_s1g1_x5F_s2g2_x5F_s3g1_x5F_s4g1">
	
		<line fill="none" stroke="#0CBBF7FF" stroke-width="1" stroke-linecap="round" stroke-linejoin="round" stroke-miterlimit="10" x1="27.936" y1="36.088" x2="41.186" y2="22.838"/>
</g>
</svg>